<svg xmlns="http://www.w3.org/2000/svg" viewBox="0 0 1200 400" width="1200" height="400">
  <defs>
    <linearGradient id="bg" x1="0%" y1="0%" x2="100%" y2="100%">
      <stop offset="0%" style="stop-color:#0a0a0a"/>
      <stop offset="50%" style="stop-color:#111111"/>
      <stop offset="100%" style="stop-color:#0d0d0d"/>
    </linearGradient>
    <radialGradient id="glow1" cx="16%" cy="55%" r="28%">
      <stop offset="0%" style="stop-color:#3498DB;stop-opacity:0.15"/>
      <stop offset="100%" style="stop-color:#3498DB;stop-opacity:0"/>
    </radialGradient>
    <radialGradient id="glow2" cx="28%" cy="30%" r="18%">
      <stop offset="0%" style="stop-color:#3498DB;stop-opacity:0.08"/>
      <stop offset="100%" style="stop-color:#3498DB;stop-opacity:0"/>
    </radialGradient>
  </defs>
  <rect width="1200" height="400" fill="url(#bg)"/>
  <rect width="1200" height="400" fill="url(#glow1)"/>
  <rect width="1200" height="400" fill="url(#glow2)"/>

  <circle cx="330" cy="204" r="2.8" fill="white" opacity="0.3"/>
  <circle cx="314" cy="63" r="1.6" fill="white" opacity="0.3"/>
  <circle cx="418" cy="88" r="1.6" fill="white" opacity="0.6"/>
  <circle cx="73" cy="295" r="1.8" fill="white" opacity="0.4"/>
  <circle cx="211" cy="330" r="2.5" fill="white" opacity="0.5"/>
  <circle cx="369" cy="326" r="2.2" fill="white" opacity="0.5"/>
  <circle cx="229" cy="243" r="3.3" fill="white" opacity="0.8"/>
  <circle cx="122" cy="40" r="2.0" fill="white" opacity="0.5"/>
  <circle cx="133" cy="221" r="2.4" fill="white" opacity="0.5"/>
  <circle cx="194" cy="322" r="2.1" fill="white" opacity="0.8"/>
  <circle cx="283" cy="142" r="2.8" fill="white" opacity="0.6"/>
  <circle cx="120" cy="146" r="3.3" fill="white" opacity="0.3"/>
  <circle cx="239" cy="227" r="3.4" fill="white" opacity="0.8"/>
  <circle cx="436" cy="36" r="3.3" fill="white" opacity="0.8"/>
  <circle cx="204" cy="105" r="3.2" fill="white" opacity="0.4"/>
  <circle cx="257" cy="242" r="3.2" fill="white" opacity="0.3"/>
  <circle cx="413" cy="79" r="2.2" fill="white" opacity="0.4"/>
  <circle cx="77" cy="147" r="2.7" fill="white" opacity="0.5"/>
  <circle cx="268" cy="354" r="1.7" fill="white" opacity="0.3"/>
  <circle cx="185" cy="337" r="2.9" fill="white" opacity="0.4"/>
  <circle cx="380" cy="330" r="2.7" fill="white" opacity="0.8"/>
  <circle cx="177" cy="251" r="2.2" fill="white" opacity="0.5"/>
  <circle cx="208" cy="366" r="2.5" fill="white" opacity="0.5"/>
  <circle cx="378" cy="355" r="3.4" fill="white" opacity="0.7"/>
  <circle cx="385" cy="170" r="3.5" fill="white" opacity="0.6"/>
  <circle cx="420" cy="127" r="2.8" fill="white" opacity="0.3"/>
  <circle cx="110" cy="345" r="2.0" fill="white" opacity="0.6"/>
  <circle cx="46" cy="206" r="2.1" fill="white" opacity="0.4"/>
  <circle cx="168" cy="105" r="3.0" fill="white" opacity="0.7"/>
  <circle cx="223" cy="205" r="3.3" fill="white" opacity="0.5"/>
  <circle cx="385" cy="310" r="1.6" fill="white" opacity="0.8"/>
  <circle cx="188" cy="279" r="1.6" fill="white" opacity="0.8"/>
  <circle cx="97" cy="316" r="3.3" fill="white" opacity="0.5"/>
  <circle cx="392" cy="145" r="2.9" fill="white" opacity="0.6"/>
  <circle cx="430" cy="261" r="2.9" fill="white" opacity="0.7"/>
  <circle cx="213" cy="133" r="2.5" fill="white" opacity="0.6"/>
  <circle cx="181" cy="278" r="2.8" fill="white" opacity="0.7"/>
  <circle cx="267" cy="220" r="2.9" fill="white" opacity="0.5"/>
  <circle cx="204" cy="138" r="2.5" fill="white" opacity="0.7"/>
  <circle cx="331" cy="155" r="1.6" fill="white" opacity="0.4"/>
  <circle cx="279" cy="362" r="2.5" fill="white" opacity="0.6"/>
  <circle cx="365" cy="180" r="3.3" fill="white" opacity="0.5"/>
  <circle cx="259" cy="339" r="2.2" fill="white" opacity="0.8"/>
  <circle cx="290" cy="93" r="3.1" fill="white" opacity="0.8"/>
  <circle cx="222" cy="71" r="2.4" fill="white" opacity="0.3"/>
  <circle cx="402" cy="276" r="1.9" fill="white" opacity="0.5"/>
  <circle cx="168" cy="272" r="1.9" fill="white" opacity="0.8"/>
  <circle cx="379" cy="71" r="1.6" fill="white" opacity="0.7"/>
  <circle cx="223" cy="172" r="2.8" fill="white" opacity="0.6"/>
  <circle cx="65" cy="97" r="1.8" fill="white" opacity="0.5"/>

  <line x1="416" y1="300" x2="493" y2="305" stroke="white" stroke-width="0.5" opacity="0.12"/>
  <line x1="138" y1="124" x2="178" y2="94" stroke="white" stroke-width="0.5" opacity="0.12"/>
  <line x1="173" y1="85" x2="219" y2="108" stroke="white" stroke-width="0.5" opacity="0.12"/>
  <line x1="224" y1="273" x2="266" y2="276" stroke="white" stroke-width="0.5" opacity="0.12"/>
  <line x1="164" y1="81" x2="223" y2="54" stroke="white" stroke-width="0.5" opacity="0.12"/>
  <line x1="147" y1="249" x2="223" y2="229" stroke="white" stroke-width="0.5" opacity="0.12"/>
  <line x1="306" y1="283" x2="362" y2="244" stroke="white" stroke-width="0.5" opacity="0.12"/>
  <line x1="312" y1="264" x2="392" y2="274" stroke="white" stroke-width="0.5" opacity="0.12"/>
  <line x1="388" y1="110" x2="463" y2="111" stroke="white" stroke-width="0.5" opacity="0.12"/>
  <line x1="290" y1="114" x2="345" y2="111" stroke="white" stroke-width="0.5" opacity="0.12"/>
  <line x1="283" y1="338" x2="329" y2="330" stroke="white" stroke-width="0.5" opacity="0.12"/>
  <line x1="283" y1="289" x2="335" y2="276" stroke="white" stroke-width="0.5" opacity="0.12"/>

  <line x1="480" y1="50" x2="480" y2="350" stroke="white" stroke-width="0.5" opacity="0.12"/>

  <text x="540" y="120" font-family="'SF Pro Display','Helvetica Neue',Arial,sans-serif" font-size="56" font-weight="800" fill="white" letter-spacing="4">API DOC GENERATOR</text>
  <text x="540" y="185" font-family="'Noto Sans SC','PingFang SC','Microsoft YaHei',sans-serif" font-size="22" font-weight="500" fill="white" opacity="0.9" letter-spacing="3">API 文档生成器</text>
  <text x="540" y="225" font-family="'Noto Sans SC','PingFang SC','Microsoft YaHei',sans-serif" font-size="14" font-weight="300" fill="white" opacity="0.5" letter-spacing="1.5">AST 代码解析 · 多格式输出 · 在线预览 · 自动化生成</text>
  <text x="540" y="275" font-family="'SF Mono','Fira Code','Consolas',monospace" font-size="12" fill="white" opacity="0.4" letter-spacing="1.5">FastAPI · Python · AST</text>
  <line x1="540" y1="315" x2="1170" y2="315" stroke="white" stroke-width="0.5" opacity="0.1"/>
  <text x="540" y="345" font-family="'SF Mono','Fira Code','Consolas',monospace" font-size="10" fill="white" opacity="0.3" letter-spacing="1">API · DOCUMENTATION · OPENAPI · AST</text>
</svg>